<svg id="No_result" data-name="No results" xmlns="http://www.w3.org/2000/svg" width="20" height="20" viewBox="0 0 20 20">
  <metadata><?xpacket begin="﻿" id="W5M0MpCehiHzreSzNTczkc9d"?>
<x:xmpmeta xmlns:x="adobe:ns:meta/" x:xmptk="Adobe XMP Core 5.6-c142 79.160924, 2017/07/13-01:06:39        ">
   <rdf:RDF xmlns:rdf="http://www.w3.org/1999/02/22-rdf-syntax-ns#">
      <rdf:Description rdf:about=""/>
   </rdf:RDF>
</x:xmpmeta>
                                                                                                    
                                                                                                    
                                                                                                    
                                                                                                    
                                                                                                    
                                                                                                    
                                                                                                    
                                                                                                    
                                                                                                    
                                                                                                    
                                                                                                    
                                                                                                    
                                                                                                    
                                                                                                    
                                                                                                    
                                                                                                    
                                                                                                    
                                                                                                    
                                                                                                    
                                                                                                    
                           
<?xpacket end="w"?></metadata>
<defs>
    <style>
      .cls-1 {
        fill: rgb(0, 0, 0);
        opacity: 0.2;
      }

      .cls-2 {
        fill: #FFFFFF;
        fill-rule: evenodd;
      }
    </style>
  </defs>
  <circle id="Ellipse_819_copy_11" data-name="Ellipse 819 copy 11" class="cls-1" cx="10" cy="10" r="10"/>
  <path id="_" data-name="?" class="cls-2" d="M250,448v-1a2.262,2.262,0,0,1,.785-1.461,4.454,4.454,0,0,0,.844-1.064,2.238,2.238,0,0,0,.241-1.02,2.316,2.316,0,0,0-.743-1.839,3.618,3.618,0,0,0-4.192.034,2.445,2.445,0,0,0-.784,1.9h1.841a1.132,1.132,0,0,1,.3-0.8,1,1,0,0,1,.752-0.29,0.914,0.914,0,0,1,.99,1.075,1.307,1.307,0,0,1-.19.677,4.044,4.044,0,0,1-.765.833,2.9,2.9,0,0,0-.79,1.038A7.011,7.011,0,0,0,248,448h2Zm-1.718,2.723a1.075,1.075,0,0,0,1.447,0,1.066,1.066,0,0,0-.006-1.434,1.048,1.048,0,0,0-1.435,0A1.066,1.066,0,0,0,248.282,450.723Z" transform="translate(-239 -436)"/>
</svg>
